<?xml version="1.0" standalone="no"?>
<!DOCTYPE svg PUBLIC "-//W3C//DTD SVG 20010904//EN"
 "http://www.w3.org/TR/2001/REC-SVG-20010904/DTD/svg10.dtd">
<svg version="1.0" xmlns="http://www.w3.org/2000/svg"
 width="500.000000pt" height="500.000000pt" viewBox="0 0 500.000000 500.000000"
 preserveAspectRatio="xMidYMid meet">
<metadata>
Created by potrace 1.16, written by Peter Selinger 2001-2019
</metadata>
<g transform="translate(0.000000,500.000000) scale(0.100000,-0.100000)"
fill="#000000" stroke="none">
<path d="M0 2500 l0 -2500 2500 0 2500 0 0 2500 0 2500 -2500 0 -2500 0 0
-2500z m1398 939 c-3 -20 -6 -20 -464 -19 -253 0 -468 -2 -477 -6 -16 -6 -17
-49 -17 -485 0 -472 0 -479 -20 -479 -20 0 -20 7 -20 505 l0 505 501 0 c500 0
500 0 497 -21z m702 -934 c0 -101 -9 -141 -23 -102 -4 10 -7 10 -18 0 -21 -20
-70 -15 -96 9 -50 47 -15 138 53 138 18 0 36 -4 39 -10 14 -23 25 -7 25 35 0
25 5 45 10 45 6 0 10 -45 10 -115z m1750 0 c0 -101 -9 -141 -23 -102 -4 10 -7
10 -18 0 -21 -20 -70 -15 -96 9 -50 47 -15 138 53 138 18 0 36 -4 39 -10 14
-23 25 -7 25 35 0 25 5 45 10 45 6 0 10 -45 10 -115z m-1438 28 c14 -12 18
-31 18 -80 0 -35 -4 -63 -10 -63 -5 0 -10 4 -10 9 0 5 -12 5 -28 -1 -42 -16
-80 -3 -88 29 -10 38 27 67 78 60 41 -6 45 -1 24 28 -10 14 -21 17 -50 12 -34
-5 -45 1 -29 16 13 13 77 7 95 -10z m835 9 c32 -20 48 -152 18 -152 -8 0 -15
5 -15 12 0 9 -3 9 -12 0 -7 -7 -26 -12 -43 -12 -38 0 -55 16 -55 52 0 34 29
51 76 46 22 -3 34 0 34 8 0 23 -30 37 -65 31 -33 -5 -44 1 -28 16 9 9 75 9 90
-1z m1353 -497 l0 -505 -500 0 c-493 0 -500 0 -500 20 0 20 7 20 480 20 l480
0 0 485 c0 478 0 485 20 485 20 0 20 -7 20 -505z"/>
</g>
</svg>
